<svg width="41" height="41" viewBox="0 0 41 41" fill="none" xmlns="http://www.w3.org/2000/svg">
<path d="M20.5 0C9.19582 0 0 9.19658 0 20.5C0 31.8034 9.19658 41 20.5 41C31.8034 41 41 31.8034 41 20.5C41 9.19658 31.8034 0 20.5 0V0ZM40.5283 20.5C40.5283 23.4745 39.8717 26.2969 38.7034 28.8368L38.3057 26.5854L38.07 24.8399L38.9153 23.6192C38.929 23.5996 38.9361 23.5761 38.9361 23.5518V21.7857L39.7956 19.8286L40.4308 18.5357C40.4944 19.1821 40.5283 19.8372 40.5283 20.4996L40.5283 20.5ZM30.6302 5.10312L30.8991 5.73708V6.43374L30.621 6.67062L29.7885 5.94661L28.9649 5.14443L28.5108 4.55179L28.0656 3.92556C27.8034 3.63072 27.5032 3.27139 27.4575 3.18549C27.4465 3.12575 27.365 2.98695 26.7587 2.38004L26.2294 1.51722C26.2187 1.49968 26.2035 1.48512 26.1851 1.47501L25.5612 1.13827H25.6251C27.6673 1.6795 29.581 2.53788 31.3138 3.65415L31.145 4.14039L30.917 4.74789L30.6617 4.96634C30.6231 5.00082 30.6103 5.05521 30.6302 5.10306L30.6302 5.10312ZM18.9737 0.535573V0.705581L18.4441 1.10741C18.4146 1.1297 18.3977 1.16447 18.3977 1.20163V1.64002L17.693 1.64031L16.5951 1.52856L16.5276 1.33715L17.2076 0.746592C17.7881 0.650594 18.3778 0.580746 18.9737 0.535574L18.9737 0.535573ZM15.3364 1.95147L17.0097 2.51974C17.0254 2.5248 17.0424 2.52658 17.059 2.52539L18.2597 2.40234L19.0518 2.737C19.0821 2.74978 19.116 2.74948 19.146 2.73611C19.1757 2.72303 19.1989 2.69777 19.2096 2.66716L19.6706 1.34576L19.9012 1.18081L19.9268 2.09537C19.928 2.14441 19.9595 2.1875 20.0064 2.20355L20.4624 2.36108C20.4799 2.36702 20.498 2.3691 20.5165 2.36672L21.3832 2.25111L20.781 2.92044H19.5714C19.5319 2.92044 19.4947 2.94035 19.473 2.97334C19.4513 3.00663 19.4474 3.04824 19.4629 3.08509L19.6891 3.61295L18.8462 3.77671L18.0259 3.99753C18.0134 4.0008 18.0015 4.00615 17.9908 4.01328L16.9494 4.70728C16.9318 4.71887 16.9179 4.73492 16.9084 4.75424L16.3719 5.85871C16.363 5.87743 16.3591 5.89794 16.3603 5.91845L16.4233 6.83324C16.4275 6.89506 16.4792 6.94321 16.541 6.94321H17.0763L18.6233 7.88356L18.8521 8.4548L18.8215 9.40824C18.8203 9.44569 18.8373 9.48195 18.8667 9.50483L19.5922 10.0728C19.618 10.0933 19.6513 10.1013 19.6843 10.0963C19.7167 10.0906 19.7455 10.0719 19.764 10.0443L20.2374 9.31877C20.2499 9.29945 20.2568 9.27746 20.2568 9.25457V8.40187L21.2777 7.71115C21.3089 7.69035 21.3279 7.65527 21.3297 7.61782L21.3612 6.73035V6.25689L21.4979 6.16564C21.5196 6.15108 21.5363 6.12998 21.5443 6.10471L21.7336 5.53674C21.7363 5.52783 21.7384 5.51891 21.7393 5.5094L21.7963 4.85315L22.3979 4.58863L23.4093 5.2856L23.6521 6.40757C23.6593 6.44175 23.6816 6.47117 23.7128 6.48723L24.3752 6.83437C24.4124 6.85369 24.4558 6.8522 24.4915 6.83051L25.2413 6.37488L25.6099 7.70761C25.617 7.73347 25.6328 7.75606 25.6547 7.77181L27.2154 8.8953L27.8191 9.78635L27.4104 10.3308L26.9268 10.6156L25.0158 10.4616L23.7538 10.2738C23.7158 10.2678 23.6783 10.2809 23.6519 10.308L22.2951 11.6962C22.257 11.7349 22.2508 11.7943 22.279 11.8404C22.3073 11.8864 22.3626 11.9073 22.4146 11.8918L24.4362 11.2697L24.8909 11.3651L24.7257 12.165C24.7156 12.2149 24.7382 12.2654 24.7824 12.291L25.9451 12.963L25.1435 13.1526L24.1179 13.5749L23.5333 13.3119C23.5059 13.2994 23.475 13.2982 23.4465 13.308L22.6259 13.5919C22.581 13.6073 22.5501 13.6478 22.5465 13.695L22.4913 14.4687H20.9291C20.8988 14.4687 20.8694 14.4802 20.8477 14.5014L20.1454 15.1725L19.5459 15.8665C19.5379 15.8763 19.531 15.8873 19.526 15.8991L19.1155 16.909C19.1123 16.9171 19.1096 16.9257 19.1084 16.9346L18.9628 17.8277L17.1412 18.3547C17.1091 18.3642 17.0832 18.3859 17.0684 18.4153L16.627 19.2989C16.6219 19.309 16.6184 19.3197 16.6163 19.331L16.4582 20.2143C16.4552 20.2309 16.4561 20.2479 16.46 20.2642L16.7655 21.4563L16.5349 22.0097L16.0748 21.5253L15.6099 20.4523C15.6031 20.4366 15.5933 20.4229 15.5805 20.4113L15.0755 19.9572C15.0589 19.9423 15.0381 19.9319 15.0158 19.9286L13.5015 19.6763C13.4837 19.6736 13.4659 19.6745 13.4483 19.6796L12.2128 20.0502L11.2933 19.8968C11.2719 19.8935 11.2499 19.8959 11.2297 19.9037L10.0307 20.389C10.0167 20.3947 10.0039 20.403 9.99264 20.4137L9.61428 20.7801C9.59139 20.8024 9.57861 20.833 9.57861 20.8648L9.57891 22.2317L9.70493 23.6893C9.70701 23.7169 9.71949 23.743 9.7394 23.763L10.8439 24.8615C10.8674 24.8844 10.903 24.8995 10.9316 24.8957L11.7203 24.8642C11.7619 24.8624 11.8 24.8386 11.8199 24.8021L12.0663 24.3405L12.6625 23.6548L13.5027 23.4818L13.2804 24.2255L12.5864 25.8033C12.571 25.8384 12.5736 25.8788 12.5933 25.9115C12.6132 25.9442 12.6479 25.9656 12.6857 25.9683L14.4027 26.0931L14.946 26.3104L15.0057 27.6226C15.0075 27.6597 15.0262 27.6936 15.0568 27.7147L16.1613 28.472C16.1978 28.4976 16.246 28.4997 16.2843 28.4786L16.9709 28.1064L17.6982 28.7175C17.7445 28.7567 17.8141 28.7538 17.8575 28.7107L18.8728 27.6954L19.8872 27.5087L19.834 28.3677C19.8313 28.4128 19.8545 28.4553 19.894 28.4779C19.9332 28.5002 19.9823 28.4978 20.0191 28.472L21.1129 27.7123L22.9701 28.1141L24.3243 28.2372L26.0008 29.5333C26.0133 29.5428 26.0267 29.5494 26.0418 29.5538L27.9607 30.0796L28.1565 30.9745L27.6432 31.8498C27.6218 31.8864 27.6215 31.9313 27.6429 31.9684C27.6638 32.005 27.703 32.0276 27.7452 32.0276H29.4785L31.1331 32.0582L32.1317 33.1145L31.5118 33.8754L30.0399 35.0026C30.0263 35.0128 30.0153 35.0261 30.0072 35.0413L29.1076 36.7443L27.4863 37.6009L26.2769 37.7561C26.2454 37.7599 26.2171 37.7766 26.1981 37.8015L25.8019 38.3202L24.564 39.0629L23.6174 39.5679C23.6013 39.5765 23.5877 39.5887 23.577 39.6035L23.0375 40.362C22.2443 40.4631 21.4377 40.5204 20.6185 40.5252V40.3267L21.0364 39.3391C21.0429 39.3245 21.0459 39.3087 21.0459 39.293V36.958C21.0459 36.9224 21.0299 36.8885 21.0019 36.8665L20.3281 36.322L19.0475 35.51L17.9983 34.389L17.1364 33.3796C17.1141 33.3531 17.0814 33.3383 17.0469 33.3383H16.9361L16.8793 32.493L16.7886 31.8579L17.0469 31.0827L17.9549 30.6943C18.004 30.6734 18.0328 30.6217 18.0257 30.5691L17.9439 29.9967L18.0254 29.4582C18.031 29.4219 18.0188 29.3853 17.9939 29.3589L17.2196 28.5522C17.1952 28.5269 17.1626 28.513 17.1263 28.5165C17.0912 28.5192 17.0594 28.5371 17.0389 28.565L16.5292 29.2724L15.7059 28.6375C15.6964 28.6304 15.6863 28.6247 15.6753 28.6206L14.5902 28.2137V27.6181C14.5902 27.5809 14.5726 27.5464 14.5438 27.5244L13.5277 26.7499C13.5146 26.7398 13.4988 26.7323 13.4822 26.7285L12.4467 26.4934L12.0821 26.1742C12.0731 26.1665 12.0636 26.1602 12.0532 26.1555L10.5526 25.4781C10.5371 25.4713 10.5205 25.4674 10.5041 25.4674H9.31916L8.0438 24.9012L7.03656 24.3517L6.94353 22.7714C6.94234 22.7485 6.93402 22.7259 6.92005 22.7075L6.49534 22.1442L5.94222 21.0469L5.7321 19.806C5.72615 19.7727 5.70654 19.7433 5.67741 19.7255L4.66067 19.0963C4.62559 19.0746 4.5819 19.0728 4.54446 19.0915C4.5079 19.1108 4.48353 19.1474 4.48085 19.1887L4.38426 20.6894C4.38307 20.7117 4.38753 20.7334 4.39793 20.7524L5.25269 22.3502L4.14944 21.5326L3.84509 21.2282V18.421C3.84509 18.4064 3.84241 18.3922 3.83736 18.3785L3.6516 17.8982L3.6519 14.4832L4.0255 13.8288C4.04928 13.7833 4.61012 12.7074 4.7082 12.4628C4.79261 12.2518 5.0824 11.2837 5.17096 10.988H5.56685C5.63194 10.988 5.68484 10.9351 5.68484 10.87V8.93838L6.08103 8.58648C6.09351 8.57549 6.10332 8.56181 6.11045 8.54636L6.54587 7.57831C6.55271 7.56285 6.55598 7.54681 6.55598 7.52986V7.16043L7.37063 6.66289C7.38431 6.65427 7.39649 6.64327 7.40571 6.6296L8.08305 5.66155C8.09464 5.6458 8.10148 5.62708 8.10356 5.60776L8.21175 4.70096C10.2884 3.08176 12.6898 1.86202 15.3023 1.15875L15.2569 1.83104C15.2533 1.88454 15.2863 1.93358 15.3365 1.95111L15.3364 1.95147ZM0.472117 20.4998C0.472117 14.2049 3.39369 8.58241 7.94937 4.90743L7.87269 5.55089L7.22625 6.47466L6.37621 6.99419C6.34114 7.01559 6.31945 7.05393 6.31945 7.09464V7.50509L5.90454 8.42703L5.48755 8.79736C5.46228 8.81995 5.44802 8.85205 5.44802 8.88564V10.7524H5.08215C5.02984 10.7524 4.98406 10.7869 4.96891 10.8368C4.96504 10.8499 4.58194 12.141 4.48861 12.3755C4.39499 12.6091 3.82167 13.7088 3.8181 13.7159L3.43083 14.3933C3.42073 14.4111 3.41538 14.4313 3.41538 14.4515V17.92C3.41538 17.9346 3.41805 17.9489 3.42311 17.9625L3.60886 18.4428V21.2767C3.60886 21.3082 3.62135 21.338 3.64334 21.3603L3.99583 21.7104L4.91359 22.3865L5.54279 22.8707C5.58677 22.9049 5.64859 22.9031 5.69109 22.8674C5.7336 22.8318 5.74519 22.7708 5.71874 22.7218L4.62081 20.6698L4.70313 19.3992L5.50706 19.8968L5.71125 21.1026C5.71333 21.1142 5.71719 21.1255 5.72225 21.1359L6.29438 22.2668L6.70899 22.8193L6.8035 24.4296C6.80558 24.47 6.82906 24.5066 6.86473 24.5262L7.93793 25.1111L9.24479 25.6918C9.26025 25.6987 9.2763 25.7019 9.29294 25.7019H10.4773L11.9387 26.3621L12.3129 26.6893C12.3278 26.7021 12.3453 26.711 12.3643 26.7157L13.404 26.9517L14.3535 27.6751V28.2942C14.3535 28.3433 14.3838 28.3876 14.4302 28.4045L15.5757 28.834L16.481 29.5327C16.5065 29.5523 16.5386 29.561 16.5701 29.5562C16.6016 29.5514 16.6302 29.5345 16.6486 29.5084L17.1467 28.8167L17.7828 29.4789L17.7073 29.9771C17.7055 29.9887 17.7055 29.9999 17.707 30.0115L17.7786 30.5109L16.9051 30.8845C16.8739 30.8975 16.8501 30.9237 16.8394 30.9555L16.5556 31.8076C16.5496 31.8251 16.5485 31.8432 16.5508 31.8617L16.6445 32.5152L16.7075 33.4618C16.7116 33.524 16.7628 33.5721 16.8252 33.5721H16.9919L17.822 34.5443L18.8846 35.6802C18.8914 35.6874 18.8991 35.6939 18.9074 35.6996L20.1899 36.5122L20.8087 37.0133V39.2682L20.3908 40.2558C20.3843 40.2704 20.3813 40.2862 20.3813 40.3019V40.5242C9.39287 40.4606 0.471719 31.5034 0.471719 20.4998L0.472117 20.4998ZM23.3551 40.3212L23.7522 39.7627L24.6796 39.2681L25.9415 38.5108C25.9543 38.5031 25.9653 38.4933 25.9748 38.4814L26.3553 37.9842L27.5367 37.8329C27.5506 37.8311 27.5643 37.8269 27.5768 37.8201L29.2492 36.9368C29.27 36.9258 29.2875 36.9086 29.2985 36.8878L30.2014 35.1749L31.6637 34.0547C31.6709 34.049 31.6777 34.0428 31.6836 34.0354L32.3776 33.1836C32.4151 33.1375 32.4127 33.0712 32.3717 33.0281L31.2672 31.8607C31.2455 31.8378 31.2152 31.8244 31.1837 31.8235L29.4777 31.792H27.948L28.3804 31.0549C28.3953 31.0294 28.4003 30.999 28.3935 30.9702L28.1724 29.9603C28.1629 29.9172 28.1308 29.8833 28.0885 29.8717L26.1243 29.3329L24.4388 28.0299C24.421 28.0162 24.3996 28.0076 24.3776 28.0055L23.0036 27.8816L21.1106 27.4712C21.0791 27.4643 21.0449 27.4709 21.0185 27.4896L20.0822 28.1393L20.1301 27.3731C20.1322 27.3368 20.1176 27.3015 20.0908 27.2777C20.0635 27.2533 20.0266 27.2432 19.9913 27.2501L18.7923 27.4709C18.7688 27.475 18.7471 27.4866 18.7302 27.5036L17.7654 28.4684L17.0595 27.8751C17.0224 27.8439 16.9704 27.8386 16.9276 27.862L16.2336 28.2377L15.2373 27.5547L15.1767 26.225C15.1746 26.1789 15.146 26.1382 15.1027 26.1209L14.4717 25.8683C14.4601 25.8635 14.4488 25.8612 14.4363 25.8603L12.8673 25.7461L13.4992 24.3083L13.783 23.3617C13.7949 23.3221 13.7851 23.279 13.7572 23.2484C13.7289 23.2178 13.6873 23.2041 13.6463 23.2128L12.574 23.4336C12.5484 23.4386 12.5255 23.4523 12.5089 23.4719L11.8779 24.1974C11.8719 24.2043 11.8669 24.2114 11.8624 24.2191L11.6416 24.6328L10.9723 24.6596L9.93468 23.6279L9.81282 22.2236V20.9167L10.1389 20.6011L11.2858 20.1366L12.1997 20.2887C12.2182 20.2914 12.2354 20.2905 12.253 20.2855L13.4884 19.9148L14.9421 20.1574L15.4022 20.5711L15.8649 21.6396C15.8706 21.6524 15.878 21.6639 15.8878 21.6741L16.4873 22.305C16.5146 22.3339 16.5554 22.3466 16.5943 22.3401C16.6335 22.333 16.6662 22.3065 16.682 22.2694L16.9976 21.5121C17.0074 21.4886 17.0095 21.4621 17.0026 21.4375L16.6938 20.2317L16.8442 19.3902L17.255 18.5684L19.0983 18.0349C19.1423 18.0221 19.1747 17.9856 19.1818 17.9404L19.3379 16.987L19.7359 16.0073L20.3148 15.3362L20.9749 14.7061H22.5995C22.6617 14.7061 22.7128 14.6583 22.7172 14.5968L22.7749 13.791L23.4775 13.5476L24.066 13.8121C24.0954 13.8252 24.129 13.8258 24.1593 13.8139L25.2138 13.3779L26.2868 13.1253C26.334 13.1143 26.3694 13.0753 26.3765 13.0278C26.3834 12.9799 26.3608 12.9327 26.3186 12.9086L24.9722 12.1311L25.1443 11.2997C25.1574 11.2358 25.117 11.1737 25.0531 11.1604L24.4536 11.0343C24.4343 11.0305 24.4141 11.0314 24.3947 11.037L22.7871 11.5316L23.7778 10.5178L24.9883 10.6988L26.9446 10.8569C26.9683 10.8587 26.993 10.8531 27.0141 10.8412L27.5506 10.5255C27.5637 10.5178 27.5758 10.5071 27.5851 10.4949L28.0585 9.86393C28.0888 9.82351 28.09 9.76852 28.0618 9.72661L27.3993 8.74875C27.3916 8.73716 27.3818 8.72705 27.3705 8.71903L25.8258 7.60535L25.4267 6.16206C25.4169 6.1264 25.391 6.09727 25.3568 6.0836C25.3224 6.06993 25.2834 6.0735 25.2519 6.09252L24.4254 6.59452L23.8711 6.30384L23.6303 5.19047C23.6238 5.16105 23.6069 5.13519 23.5819 5.11795L22.4774 4.35708C22.4441 4.33361 22.4004 4.32974 22.3633 4.34639L21.6378 4.66559C21.5986 4.68313 21.5712 4.72058 21.5679 4.76307L21.5058 5.4752L21.3337 5.99176L21.1783 6.09519C21.1456 6.11689 21.126 6.15404 21.126 6.19327V6.72558L21.0966 7.54914L20.073 8.24106C20.0406 8.26275 20.021 8.29931 20.021 8.33854V9.21886L19.637 9.80735L19.0595 9.35558L19.0892 8.43752C19.0895 8.42147 19.0871 8.40512 19.0806 8.38967L18.828 7.75868C18.8184 7.7352 18.8015 7.7147 18.7798 7.70162L17.171 6.72322C17.1525 6.71223 17.1314 6.70628 17.1097 6.70628H16.6517L16.5985 5.93263L17.1074 4.88522L18.1057 4.21976L18.899 4.00577L19.8774 3.81644C19.9124 3.80961 19.9424 3.78762 19.9591 3.75581C19.9757 3.72431 19.9775 3.68686 19.9633 3.65387L19.7499 3.15574H20.8329C20.8662 3.15574 20.898 3.14177 20.9205 3.11651L21.7723 2.16992C21.805 2.13336 21.8119 2.07956 21.789 2.03558C21.7661 1.99159 21.7191 1.96752 21.6689 1.97376L20.5122 2.12801L20.1594 2.00615L20.1299 0.951969C20.1288 0.907981 20.1035 0.868746 20.0643 0.849724C20.0256 0.830405 19.9787 0.833972 19.9427 0.859533L19.5013 1.17517C19.4814 1.18914 19.4663 1.20935 19.4588 1.23223L19.0267 2.47016L18.3223 2.17235C18.3039 2.16463 18.2837 2.16165 18.2643 2.16344L17.0588 2.28708L15.4975 1.75745L15.5427 1.09317C15.941 0.991232 16.3449 0.905634 16.7523 0.828056L16.3113 1.21117C16.2741 1.24327 16.261 1.29379 16.2768 1.33986L16.396 1.67779C16.4114 1.72089 16.4501 1.7515 16.4952 1.75566L17.6796 1.87543H18.5142C18.5793 1.87543 18.6322 1.82253 18.6322 1.75744L18.6325 1.2599L19.1621 0.858072C19.1915 0.835781 19.2085 0.801008 19.2085 0.763855V0.517463C19.6353 0.490119 20.0651 0.471395 20.499 0.471395C22.0406 0.471395 23.5395 0.652398 24.9822 0.983496C24.9813 0.986468 24.9792 0.988548 24.9789 0.991521C24.9658 1.04383 24.9896 1.09851 25.0371 1.12438L26.0426 1.66768L26.5624 2.51505C26.5672 2.52278 26.5731 2.52992 26.5794 2.53675C26.8555 2.81286 27.1732 3.15168 27.2231 3.23609C27.2377 3.29732 27.3257 3.45157 27.8779 4.07213L28.3181 4.69152L28.7865 5.30051L29.6264 6.11996L30.541 6.91499C30.5633 6.93431 30.5909 6.94382 30.6185 6.94382C30.6459 6.94382 30.6732 6.93431 30.6952 6.91559L31.0929 6.57766C31.1193 6.55536 31.1342 6.52237 31.1342 6.4879V5.71273C31.1342 5.69697 31.1309 5.68122 31.1247 5.66666L30.8807 5.09007L31.0932 4.90758C31.1087 4.8945 31.1199 4.87786 31.1268 4.85943L31.3666 4.22072L31.5173 3.7853C36.3105 6.95537 39.6639 12.129 40.3799 18.1033L39.5813 19.7284L38.7099 21.7126C38.7033 21.7274 38.7 21.7438 38.7 21.7598V23.514L37.85 24.7424C37.8334 24.7668 37.8262 24.7962 37.8301 24.8257L38.0729 26.6211L38.5306 29.2131C35.681 35.0849 30.0462 39.3615 23.3552 40.321L23.3551 40.3212Z" fill="#00FFA8"/>
</svg>
